#!OML:ASF X:\für Bonn\!DataBase\2005_08_12_Daniel\c3d\Daniel.ASF
:FULLY-SPECIFIED
:DEGREES
363
root 0.915563 18.4972 -0.388166 -36.8721 -81.7998 31.0252
lowerback 14.7181 -3.11914 -3.93317
upperback -0.140359 -5.15089 -2.99816
thorax -8.3527 -2.4219 0.122081
lowerneck 9.84436 2.33296 -5.88097
upperneck -5.43245 2.48555 1.93968
head -3.6603 1.27647 1.54269
rclavicle -2.96935e-015 3.49861e-014
rhumerus 4.07825 -50.0381 -18.1497
rradius 15.2585
rwrist -39.7335
rhand -22.1635 10.0882
rfingers 7.12502
rthumb 4.2509 -19.8491
lclavicle -2.96935e-015 3.49861e-014
lhumerus -4.6923 51.8894 3.28072
lradius 33.2836
lwrist 64.7965
lhand -27.2198 2.10207
lfingers 7.12502
lthumb -0.632362 32.0809
rfemur -7.21987 -6.64666 4.46152
rtibia 34.6469
rfoot 12.2706 0.794284
rtoes -11.9492
lfemur -12.06 -8.67089 -13.3447
ltibia 34.4886
lfoot 14.4102 -7.06876
ltoes -0.649709
364
root 0.921211 18.5913 -0.404403 -36.3879 -81.774 30.6398
lowerback 14.3856 -3.16547 -3.88687
upperback -0.344022 -5.19744 -3.05118
thorax -8.39432 -2.44474 0.035163
lowerneck 10.1435 2.38173 -5.68953
upperneck -4.70167 2.54924 1.89308
head -3.45915 1.29313 1.48477
rclavicle 1.82509e-014 1.74931e-014
rhumerus 8.1008 -49.2233 -18.6444
rradius 15.3173
rwrist -40.3957
rhand -22.2483 10.2358
rfingers 7.12502
rthumb 4.169 -19.7031
lclavicle 1.82509e-014 1.74931e-014
lhumerus -0.341315 50.6057 3.31266
lradius 33.2995
lwrist 65.6452
lhand -27.3607 2.53265
lfingers 7.12502
lthumb -0.768434 32.511
rfemur -6.54859 -6.09672 3.97961
rtibia 33.7666
rfoot 11.3473 -0.685812
rtoes -11.8553
lfemur -11.9144 -9.44612 -12.7587
ltibia 33.8899
lfoot 14.1586 -6.63802
ltoes -1.97302
365
root 0.92723 18.6754 -0.420189 -35.9885 -81.7598 30.3198
lowerback 14.0472 -3.19995 -3.84011
upperback -0.526899 -5.22691 -3.09757
thorax -8.40928 -2.46044 -0.0496515
lowerneck 10.4288 2.42256 -5.52709
upperneck -3.94924 2.59734 1.84765
head -3.24903 1.30199 1.43405
rclavicle -4.58696e-014 -1.98785e-014
rhumerus 12.0487 -48.3693 -19.0328
rradius 15.4396
rwrist -40.9816
rhand -22.3451 10.4359
rfingers 7.12502
rthumb 4.07556 -19.5049
lclavicle -4.58696e-014 -1.98785e-014
lhumerus 3.67433 48.9391 3.003
lradius 33.3356
lwrist 66.8441
lhand -27.3423 2.35796
lfingers 7.12502
lthumb -0.750716 32.3364
rfemur -5.82699 -5.32098 3.51477
rtibia 32.9088
rfoot 10.0079 -2.57703
rtoes -11.3683
lfemur -11.7712 -10.2272 -12.1674
ltibia 33.4664
lfoot 13.2419 -5.94266
ltoes -2.96742
366
root 0.934985 18.746 -0.435786 -35.5582 -81.7386 29.9487
lowerback 13.747 -3.24374 -3.7789
upperback -0.705368 -5.26956 -3.1468
thorax -8.44231 -2.48313 -0.140728
lowerneck 10.6989 2.46566 -5.38616
upperneck -3.20449 2.64567 1.81716
head -3.04079 1.31052 1.39275
rclavicle 1.50207e-014 2.34566e-014
rhumerus 15.9974 -47.5837 -19.4368
rradius 15.589
rwrist -41.4605
rhand -22.3125 10.7924
rfingers 7.12502
rthumb 4.10699 -19.1477
lclavicle 1.50207e-014 2.34566e-014
lhumerus 7.16072 46.8481 2.164
lradius 33.4841
lwrist 68.6219
lhand -27.2117 1.57249
lfingers 7.12502
lthumb -0.624541 31.5513
rfemur -5.04386 -4.52342 3.0435
rtibia 32.0911
rfoot 8.27494 -4.52284
rtoes -10.8926
lfemur -11.6312 -10.9934 -11.5615
ltibia 33.1828
lfoot 11.8959 -4.88174
ltoes -3.01899
367
root 0.942601 18.8045 -0.450789 -35.1063 -81.7501 29.5266
lowerback 13.4579 -3.28088 -3.69436
upperback -0.861901 -5.29918 -3.19001
thorax -8.45923 -2.50126 -0.241062
lowerneck 10.98 2.51221 -5.17949
upperneck -2.48349 2.70131 1.72232
head -2.84119 1.32412 1.31831
rclavicle 1.15047e-014 -1.19271e-014
rhumerus 20.0271 -47.0946 -20.0405
rradius 15.8363
rwrist -41.5774
rhand -22.1608 11.1637
rfingers 7.12502
rthumb 4.25354 -18.7736
lclavicle 1.15047e-014 -1.19271e-014
lhumerus 10.041 44.3117 0.693898
lradius 33.7813
lwrist 71.0527
lhand -26.9907 0.316365
lfingers 7.12502
lthumb -0.41113 30.2957
rfemur -4.20133 -3.67849 2.59709
rtibia 31.3141
rfoot 6.19111 -6.32187
rtoes -9.62095
lfemur -11.4474 -11.7411 -10.9323
ltibia 32.9877
lfoot 10.3286 -3.52113
ltoes -2.1393
